<svg xmlns="http://www.w3.org/2000/svg" viewBox="0 0 200 400">
  <defs>
    <linearGradient id="body" x1="0%" y1="0%" x2="100%" y2="100%">
      <stop offset="0%" stop-color="#4A4A4C"/>
      <stop offset="100%" stop-color="#1C1C1E"/>
    </linearGradient>
    <linearGradient id="screen" x1="0%" y1="0%" x2="0%" y2="100%">
      <stop offset="0%" stop-color="#1E1E2E"/>
      <stop offset="100%" stop-color="#0A0A12"/>
    </linearGradient>
  </defs>
  <rect x="15" y="10" width="170" height="380" rx="35" fill="url(#body)"/>
  <rect x="20" y="15" width="160" height="370" rx="32" fill="#0A0A0A"/>
  <rect x="24" y="19" width="152" height="362" rx="28" fill="url(#screen)"/>
  <rect x="70" y="28" width="60" height="22" rx="11" fill="#000"/>
  <circle cx="90" cy="39" r="5" fill="#1a1a2a"/>
  <circle cx="110" cy="39" r="3" fill="#1a1a2a"/>
  <rect x="140" y="25" width="32" height="70" rx="12" fill="#1C1C1E" stroke="#3a3a3c" stroke-width="1"/>
  <circle cx="156" cy="42" r="11" fill="#0a0a12" stroke="#2a2a2a" stroke-width="1"/>
  <circle cx="156" cy="42" r="7" fill="#1a1a2a"/>
  <circle cx="156" cy="65" r="11" fill="#0a0a12" stroke="#2a2a2a" stroke-width="1"/>
  <circle cx="156" cy="65" r="7" fill="#1a1a2a"/>
  <circle cx="156" cy="88" r="11" fill="#0a0a12" stroke="#2a2a2a" stroke-width="1"/>
  <circle cx="156" cy="88" r="7" fill="#1a1a2a"/>
  <rect x="40" y="90" width="35" height="35" rx="8" fill="#FF3B30"/>
  <rect x="82" y="90" width="35" height="35" rx="8" fill="#34C759"/>
  <rect x="124" y="90" width="35" height="35" rx="8" fill="#007AFF"/>
  <rect x="40" y="132" width="35" height="35" rx="8" fill="#FF9500"/>
  <rect x="82" y="132" width="35" height="35" rx="8" fill="#AF52DE"/>
  <rect x="124" y="132" width="35" height="35" rx="8" fill="#5856D6"/>
  <rect x="30" y="320" width="140" height="45" rx="15" fill="rgba(100,100,100,0.25)"/>
  <rect x="75" y="375" width="50" height="4" rx="2" fill="#fff" opacity="0.4"/>
</svg>