<svg xmlns="http://www.w3.org/2000/svg" viewBox="0 0 200 400">
  <defs>
    <linearGradient id="body" x1="0%" y1="0%" x2="100%" y2="100%">
      <stop offset="0%" stop-color="#2D2D2D"/>
      <stop offset="100%" stop-color="#1A1A1A"/>
    </linearGradient>
    <linearGradient id="screen" x1="0%" y1="0%" x2="0%" y2="100%">
      <stop offset="0%" stop-color="#1A2332"/>
      <stop offset="100%" stop-color="#0A0F15"/>
    </linearGradient>
  </defs>
  <rect x="15" y="10" width="170" height="380" rx="30" fill="url(#body)"/>
  <rect x="20" y="15" width="160" height="370" rx="27" fill="#0A0A0A"/>
  <rect x="24" y="19" width="152" height="362" rx="24" fill="url(#screen)"/>
  <circle cx="100" cy="32" r="6" fill="#0a0a12"/>
  <circle cx="100" cy="32" r="4" fill="#1a1a2a"/>
  <rect x="30" y="22" width="140" height="22" rx="6" fill="#1A1A1A"/>
  <circle cx="55" cy="33" r="9" fill="#0a0a12" stroke="#333" stroke-width="1"/>
  <circle cx="55" cy="33" r="6" fill="#1a1a2a"/>
  <circle cx="80" cy="33" r="9" fill="#0a0a12" stroke="#333" stroke-width="1"/>
  <circle cx="80" cy="33" r="6" fill="#1a1a2a"/>
  <circle cx="105" cy="33" r="9" fill="#0a0a12" stroke="#333" stroke-width="1"/>
  <circle cx="105" cy="33" r="6" fill="#1a1a2a"/>
  <rect x="40" y="100" width="35" height="35" rx="18" fill="#EA4335"/>
  <rect x="82" y="100" width="35" height="35" rx="18" fill="#34A853"/>
  <rect x="124" y="100" width="35" height="35" rx="18" fill="#4285F4"/>
  <rect x="40" y="145" width="35" height="35" rx="18" fill="#FBBC04"/>
  <rect x="82" y="145" width="35" height="35" rx="18" fill="#9C27B0"/>
  <rect x="124" y="145" width="35" height="35" rx="18" fill="#00BCD4"/>
  <rect x="30" y="320" width="140" height="45" rx="22" fill="rgba(80,80,80,0.3)"/>
  <rect x="75" y="375" width="50" height="4" rx="2" fill="#fff" opacity="0.4"/>
</svg>