<svg xmlns="http://www.w3.org/2000/svg" viewBox="0 0 200 400">
  <defs>
    <linearGradient id="body" x1="0%" y1="0%" x2="100%" y2="100%">
      <stop offset="0%" stop-color="#8B9A7D"/>
      <stop offset="100%" stop-color="#5A6650"/>
    </linearGradient>
    <linearGradient id="screen" x1="0%" y1="0%" x2="0%" y2="100%">
      <stop offset="0%" stop-color="#1A2332"/>
      <stop offset="100%" stop-color="#0A0F15"/>
    </linearGradient>
  </defs>
  <rect x="15" y="10" width="170" height="380" rx="30" fill="url(#body)"/>
  <rect x="19" y="14" width="162" height="372" rx="27" fill="#0A0A0A"/>
  <rect x="22" y="17" width="156" height="366" rx="24" fill="url(#screen)"/>
  <circle cx="100" cy="30" r="5" fill="#0a0a12"/>
  <circle cx="100" cy="30" r="3" fill="#1a1a2a"/>
  <rect x="40" y="22" width="75" height="20" rx="6" fill="#5A6650"/>
  <circle cx="60" cy="32" r="8" fill="#0a0a12" stroke="#6B7A60" stroke-width="1"/>
  <circle cx="60" cy="32" r="5" fill="#1a1a2a"/>
  <circle cx="85" cy="32" r="8" fill="#0a0a12" stroke="#6B7A60" stroke-width="1"/>
  <circle cx="85" cy="32" r="5" fill="#1a1a2a"/>
  <circle cx="105" cy="32" r="4" fill="#FFF8E1"/>
  <rect x="40" y="100" width="35" height="35" rx="18" fill="#EA4335"/>
  <rect x="82" y="100" width="35" height="35" rx="18" fill="#34A853"/>
  <rect x="124" y="100" width="35" height="35" rx="18" fill="#4285F4"/>
  <rect x="40" y="145" width="35" height="35" rx="18" fill="#FBBC04"/>
  <rect x="82" y="145" width="35" height="35" rx="18" fill="#9C27B0"/>
  <rect x="124" y="145" width="35" height="35" rx="18" fill="#00BCD4"/>
  <rect x="30" y="320" width="140" height="45" rx="22" fill="rgba(80,80,80,0.3)"/>
  <rect x="75" y="375" width="50" height="4" rx="2" fill="#fff" opacity="0.4"/>
</svg>