<svg xmlns="http://www.w3.org/2000/svg" viewBox="0 0 200 400">
  <defs>
    <linearGradient id="body" x1="0%" y1="0%" x2="100%" y2="100%">
      <stop offset="0%" stop-color="#F5E6D3"/>
      <stop offset="100%" stop-color="#D4C4A8"/>
    </linearGradient>
    <linearGradient id="screen" x1="0%" y1="0%" x2="0%" y2="100%">
      <stop offset="0%" stop-color="#0D1B2A"/>
      <stop offset="100%" stop-color="#051118"/>
    </linearGradient>
  </defs>
  <rect x="15" y="10" width="170" height="380" rx="28" fill="url(#body)"/>
  <rect x="19" y="14" width="162" height="372" rx="25" fill="#0A0A0A"/>
  <rect x="22" y="17" width="156" height="366" rx="22" fill="url(#screen)"/>
  <circle cx="100" cy="30" r="5" fill="#0a0a12"/>
  <circle cx="100" cy="30" r="3" fill="#1a1a2a"/>
  <rect x="25" y="28" width="30" height="65" rx="10" fill="#D4C4A8" stroke="#C4B498" stroke-width="1"/>
  <circle cx="40" cy="43" r="10" fill="#0a0a12" stroke="#B4A488" stroke-width="1"/>
  <circle cx="40" cy="43" r="6" fill="#1a1a2a"/>
  <circle cx="40" cy="66" r="10" fill="#0a0a12" stroke="#B4A488" stroke-width="1"/>
  <circle cx="40" cy="66" r="6" fill="#1a1a2a"/>
  <circle cx="40" cy="85" r="5" fill="#FFF8E1"/>
  <rect x="50" y="90" width="35" height="35" rx="10" fill="#1E88E5"/>
  <rect x="92" y="90" width="35" height="35" rx="10" fill="#43A047"/>
  <rect x="134" y="90" width="35" height="35" rx="10" fill="#FB8C00"/>
  <rect x="50" y="132" width="35" height="35" rx="10" fill="#E53935"/>
  <rect x="92" y="132" width="35" height="35" rx="10" fill="#8E24AA"/>
  <rect x="134" y="132" width="35" height="35" rx="10" fill="#00ACC1"/>
  <rect x="35" y="320" width="130" height="40" rx="15" fill="rgba(80,80,80,0.3)"/>
  <rect x="75" y="375" width="50" height="4" rx="2" fill="#fff" opacity="0.4"/>
</svg>