<svg xmlns="http://www.w3.org/2000/svg" viewBox="0 0 200 400">
  <defs>
    <linearGradient id="body" x1="0%" y1="0%" x2="100%" y2="100%">
      <stop offset="0%" stop-color="#3D5A4C"/>
      <stop offset="100%" stop-color="#1A2E25"/>
    </linearGradient>
    <linearGradient id="screen" x1="0%" y1="0%" x2="0%" y2="100%">
      <stop offset="0%" stop-color="#0D1B2A"/>
      <stop offset="100%" stop-color="#051118"/>
    </linearGradient>
  </defs>
  <rect x="15" y="10" width="170" height="380" rx="12" fill="url(#body)"/>
  <rect x="19" y="14" width="162" height="372" rx="9" fill="#0A0A0A"/>
  <rect x="22" y="17" width="156" height="366" rx="7" fill="url(#screen)"/>
  <circle cx="100" cy="30" r="5" fill="#0a0a12"/>
  <circle cx="100" cy="30" r="3" fill="#1a1a2a"/>
  <circle cx="32" cy="40" r="12" fill="#0a0a12" stroke="#3D5A4C" stroke-width="1"/>
  <circle cx="32" cy="40" r="8" fill="#1a1a2a"/>
  <circle cx="32" cy="68" r="10" fill="#0a0a12" stroke="#3D5A4C" stroke-width="1"/>
  <circle cx="32" cy="68" r="6" fill="#1a1a2a"/>
  <circle cx="32" cy="92" r="9" fill="#0a0a12" stroke="#3D5A4C" stroke-width="1"/>
  <circle cx="32" cy="92" r="5" fill="#1a1a2a"/>
  <circle cx="32" cy="112" r="7" fill="#0a0a12" stroke="#3D5A4C" stroke-width="1"/>
  <circle cx="32" cy="112" r="4" fill="#1a1a2a"/>
  <circle cx="32" cy="128" r="5" fill="#FFF8E1"/>
  <rect x="50" y="90" width="35" height="35" rx="10" fill="#1E88E5"/>
  <rect x="92" y="90" width="35" height="35" rx="10" fill="#43A047"/>
  <rect x="134" y="90" width="35" height="35" rx="10" fill="#FB8C00"/>
  <rect x="50" y="132" width="35" height="35" rx="10" fill="#E53935"/>
  <rect x="92" y="132" width="35" height="35" rx="10" fill="#8E24AA"/>
  <rect x="134" y="132" width="35" height="35" rx="10" fill="#00ACC1"/>
  <rect x="35" y="320" width="130" height="40" rx="15" fill="rgba(80,80,80,0.3)"/>
  <rect x="75" y="375" width="50" height="4" rx="2" fill="#fff" opacity="0.4"/>
</svg>