<svg xmlns="http://www.w3.org/2000/svg" viewBox="0 0 200 400">
  <defs>
    <linearGradient id="body" x1="0%" y1="0%" x2="100%" y2="100%">
      <stop offset="0%" stop-color="#6B5B95"/>
      <stop offset="100%" stop-color="#4A3F6B"/>
    </linearGradient>
    <linearGradient id="screen" x1="0%" y1="0%" x2="0%" y2="100%">
      <stop offset="0%" stop-color="#0D1B2A"/>
      <stop offset="100%" stop-color="#051118"/>
    </linearGradient>
  </defs>
  <rect x="30" y="10" width="140" height="180" rx="25" fill="url(#body)"/>
  <rect x="35" y="15" width="130" height="170" rx="22" fill="#0A0A0A"/>
  <rect x="38" y="18" width="124" height="164" rx="19" fill="url(#screen)"/>
  <rect x="30" y="195" width="140" height="10" fill="#3A2F5A"/>
  <line x1="30" y1="200" x2="170" y2="200" stroke="#4A3F6B" stroke-width="1"/>
  <rect x="30" y="210" width="140" height="180" rx="25" fill="url(#body)"/>
  <rect x="50" y="230" width="60" height="60" rx="15" fill="#0A0A0A"/>
  <rect x="55" y="235" width="50" height="50" rx="12" fill="#1a1a2a"/>
  <text x="80" y="265" font-family="system-ui" font-size="11" fill="#fff" text-anchor="middle">12:00</text>
  <circle cx="130" cy="260" r="12" fill="#0a0a12" stroke="#6B5B95" stroke-width="1"/>
  <circle cx="130" cy="260" r="8" fill="#1a1a2a"/>
  <circle cx="130" cy="290" r="12" fill="#0a0a12" stroke="#6B5B95" stroke-width="1"/>
  <circle cx="130" cy="290" r="8" fill="#1a1a2a"/>
  <circle cx="80" cy="32" r="5" fill="#0a0a12"/>
  <rect x="50" y="70" width="28" height="28" rx="7" fill="#1E88E5"/>
  <rect x="85" y="70" width="28" height="28" rx="7" fill="#43A047"/>
  <rect x="120" y="70" width="28" height="28" rx="7" fill="#FB8C00"/>
  <rect x="50" y="105" width="28" height="28" rx="7" fill="#E53935"/>
  <rect x="85" y="105" width="28" height="28" rx="7" fill="#8E24AA"/>
  <rect x="120" y="105" width="28" height="28" rx="7" fill="#00ACC1"/>
</svg>